<?xml version="1.0" encoding="UTF-8"?>
<svg version="1.1" xmlns="http://www.w3.org/2000/svg" width="512" height="512">
<path d="M0 0 C1.8142793 -0.00302325 3.62855734 -0.0069136 5.44283313 -0.01159257 C10.41185621 -0.02185896 15.38080702 -0.0196942 20.34983599 -0.01541197 C25.7153384 -0.01294228 31.08082352 -0.02196195 36.44631958 -0.02944946 C46.95168459 -0.04219182 57.45702403 -0.04399072 67.96239547 -0.0416492 C76.50276206 -0.03986533 85.04312089 -0.04161717 93.58348656 -0.04587364 C95.40756253 -0.04676643 95.40756253 -0.04676643 97.26848852 -0.04767724 C99.73899868 -0.04888901 102.20950883 -0.05010315 104.68001898 -0.05131962 C127.84315486 -0.06219342 151.00627618 -0.06003345 174.16941287 -0.05393478 C195.35082034 -0.04876604 216.5321818 -0.06002021 237.71358017 -0.07903299 C259.47235265 -0.09841403 281.23110338 -0.10666691 302.98988456 -0.10290974 C315.20186768 -0.10099807 327.41381166 -0.10348198 339.62578773 -0.11762428 C350.02226398 -0.12954243 360.41867699 -0.13093807 370.81515411 -0.11883412 C376.11699786 -0.11294847 381.41872596 -0.11183741 386.72056198 -0.12383652 C391.57951099 -0.13470526 396.43824792 -0.13158008 401.29718705 -0.11757483 C403.04946306 -0.11493065 404.80175575 -0.11728563 406.55401538 -0.1253107 C422.0797132 -0.19144752 435.05279124 0.94403714 446.99333191 11.82319641 C455.68570021 21.50897823 458.94703027 30.82775607 458.81575012 43.78437805 C458.82355008 44.98672875 458.83135003 46.18907946 458.83938634 47.42786503 C458.85575741 50.72996836 458.85003277 54.03113593 458.83445525 57.33321428 C458.82306703 60.90795632 458.84064116 64.48257902 458.85435486 68.05729675 C458.87651277 75.04619202 458.87181953 82.03481782 458.85729165 89.02372336 C458.84596992 94.70699497 458.84448115 100.3901914 458.84991074 106.07347107 C458.85105998 107.28976955 458.85105998 107.28976955 458.85223245 108.53063971 C458.85383118 110.17823055 458.85545225 111.82582136 458.85709541 113.47341216 C458.87133108 128.89946767 458.85499451 144.32537427 458.82809357 159.75140536 C458.80575675 172.96909513 458.8096375 186.18656529 458.83268738 199.4042511 C458.85948403 214.77753402 458.86995799 230.15068666 458.85462606 245.52398968 C458.85303342 247.16530035 458.85146157 248.80661104 458.84991074 250.44792175 C458.84875367 251.65905178 458.84875367 251.65905178 458.84757323 252.89464909 C458.8432678 258.56683723 458.85051772 264.23894228 458.8623085 269.91111755 C458.8763751 276.82976919 458.87244671 283.74813743 458.84590478 290.66675687 C458.83282205 294.1924493 458.82751814 297.71767035 458.84415054 301.24335861 C458.85787208 305.07504323 458.84060669 308.90541326 458.81575012 312.73701477 C458.82690373 313.83781404 458.83805734 314.9386133 458.84954894 316.07277012 C458.7052382 327.59008752 454.61055487 336.81250861 446.64958191 345.06538391 C436.40786946 354.17272948 425.23023443 356.44063053 411.92887878 356.3742218 C411.13493965 356.37434234 410.34100052 356.37446287 409.52300262 356.37458706 C406.98183275 356.37384741 404.44073847 356.36626291 401.89958191 356.35835266 C400.31917862 356.3568803 398.73877485 356.3558614 397.15837097 356.3553009 C391.33251713 356.35008212 385.50667376 356.33612087 379.68083191 356.32319641 C360.12833191 356.29225891 360.12833191 356.29225891 340.18083191 356.26069641 C340.18083191 395.20069641 340.18083191 434.14069641 340.18083191 474.26069641 C335.3122806 470.60928293 330.46104442 466.96061248 325.68083191 463.19819641 C324.79524597 462.50210266 324.79524597 462.50210266 323.89176941 461.79194641 C318.59714242 457.6160586 313.36806729 453.36159354 308.14372253 449.0983429 C303.85771908 445.60640734 299.53821941 442.16304008 295.18083191 438.76069641 C289.44072523 434.27869531 283.78389945 429.70113084 278.14176941 425.09663391 C273.85631573 421.60539558 269.53753738 418.16250753 265.18083191 414.76069641 C259.44072523 410.27869531 253.78389945 405.70113084 248.14176941 401.09663391 C243.85631573 397.60539558 239.53753738 394.16250753 235.18083191 390.76069641 C230.1323702 386.81874685 225.14321583 382.81044432 220.18083191 378.76069641 C213.89928966 373.63453779 207.55846893 368.59150005 201.16911316 363.60054016 C198.18083191 361.26069641 198.18083191 361.26069641 196.02292061 359.14605141 C192.27438669 356.65938829 189.06700295 356.70502636 184.71913147 356.75517273 C183.44417145 356.74603755 183.44417145 356.74603755 182.14345467 356.73671782 C179.29609754 356.72110552 176.44958011 356.73391133 173.60221863 356.74653625 C171.56023632 356.7410759 169.5182581 356.73383474 167.47628784 356.72494507 C163.07827162 356.70959719 158.68048874 356.70681064 154.28245163 356.71371078 C147.32271453 356.72449264 140.36322127 356.70711886 133.40351868 356.68589783 C122.38824607 356.6556187 111.37304556 356.64394184 100.3577348 356.64032137 C80.65189966 356.63368194 60.94611511 356.60458126 41.24034131 356.55522501 C34.328095 356.5387631 27.41595353 356.53330354 20.50368953 356.5368154 C16.19292647 356.53725396 11.8822026 356.52966497 7.57145119 356.52013969 C5.57972307 356.51746787 3.5879869 356.51818988 1.59626198 356.52264977 C-14.80751067 356.55682565 -30.33171183 356.39565642 -43.19416809 344.63569641 C-49.15581802 338.20109722 -53.9328691 329.19078715 -53.95618248 320.33356571 C-53.96379429 318.79952912 -53.96379429 318.79952912 -53.97155988 317.2345019 C-53.97205764 316.10748706 -53.9725554 314.98047222 -53.97306824 313.81930542 C-53.97745049 312.62464454 -53.98183275 311.42998366 -53.98634779 310.19912094 C-53.99741789 306.87699185 -54.00396197 303.55490988 -54.00852895 300.23276913 C-54.01448495 296.65177211 -54.02609504 293.07079244 -54.03681946 289.48980713 C-54.06134721 280.83687033 -54.07597307 272.18392778 -54.08887953 263.53096691 C-54.0925918 261.08618669 -54.09656502 258.64140703 -54.10063219 256.19662738 C-54.12587384 241.01026681 -54.14792398 225.82390534 -54.16036034 210.63752842 C-54.16328998 207.11942097 -54.16625165 203.60131355 -54.16926575 200.08320618 C-54.1700118 199.20880966 -54.17075785 198.33441315 -54.17152651 197.43351977 C-54.18417045 183.28006277 -54.2173799 169.12673168 -54.25906758 154.97333349 C-54.30153227 140.43670021 -54.32506078 125.90013129 -54.3302809 111.36343616 C-54.33369036 103.20399241 -54.34539004 95.04474523 -54.37838364 86.88536263 C-54.40644802 79.93359845 -54.41735571 72.98207114 -54.40618818 66.03025473 C-54.40101731 62.48636658 -54.40378429 58.94297395 -54.42865372 55.39915848 C-54.45545597 51.54755403 -54.44303183 47.69661694 -54.4271698 43.84494019 C-54.44105189 42.73800184 -54.45493397 41.6310635 -54.46923673 40.49058157 C-54.35983629 29.66471274 -50.56121077 19.05505019 -42.81916809 11.26069641 C-39.95375925 8.99826029 -36.97619412 7.08844832 -33.81916809 5.26069641 C-32.84979309 4.68319641 -31.88041809 4.10569641 -30.88166809 3.51069641 C-20.98627701 -0.52823872 -10.49593359 -0.02480276 0 0 Z " fill="#E04F5F" transform="translate(53.81916809082031,18.739303588867188)"/>
</svg>
